<svg id="Layer_1" data-name="Layer 1" xmlns="http://www.w3.org/2000/svg" xmlns:xlink="http://www.w3.org/1999/xlink" viewBox="0 0 97.5 34.70465"><defs><style>.cls-1{fill:#fff;}.cls-2{fill:#010101;}</style></defs><title>matematikfessor96x38</title><g id="Logo"><path class="cls-1" d="M95.90459,28.20438l-.03386-.48934a2.47759,2.47759,0,0,0-2.15782-2.28647c-.24584-.28877-.58829-.695-1.0216-1.212l-.02692-.032.04507-.03076a2.64088,2.64088,0,0,1,.54882-.2707A2.47716,2.47716,0,0,0,94.86,21.39294l-.03175-.45971a2.47708,2.47708,0,0,0-2.64208-2.30053l-2.38537.16487L89.69135,17.213a2.47726,2.47726,0,0,0-.7809-1.64005l-.11144-.104a2.47725,2.47725,0,0,0-2.0095-.64567l-2.69529.35024a2.4832,2.4832,0,0,0-.42819.09616,2.47551,2.47551,0,0,0-1.19289-.14884l-2.98408.37019a2.47557,2.47557,0,0,0-.67841.1849l-.01951-.282a2.47737,2.47737,0,0,0-2.15781-2.28647c-.24734-.29052-.58979-.69669-1.02176-1.21211l-.02675-.03191.04535-.03091a2.64235,2.64235,0,0,1,.54853-.27049,2.47714,2.47714,0,0,0,1.60173-2.4902l-.03175-.45971a2.47706,2.47706,0,0,0-2.64208-2.30053l-2.38536.16487-.10946-1.58458a2.47728,2.47728,0,0,0-.78092-1.64005l-.11142-.104a2.47715,2.47715,0,0,0-2.0095-.64566l-2.69531.35016a2.46526,2.46526,0,0,0-.96823.34253,3.47513,3.47513,0,0,0-.93058-.125q-.12452,0-.25326.00876A3.34008,3.34008,0,0,0,62.4595,4.35735a3.53161,3.53161,0,0,0-.599,1.11021,2.46474,2.46474,0,0,0-1.51616-.39287L58.99478,5.168a2.47711,2.47711,0,0,0-2.30039,2.6421l.00514.07369c-.06108.03674-.11989.07688-.17735.11855a4.46267,4.46267,0,0,0-1.39082-.3919,8.55254,8.55254,0,0,0-1.54186-.02,5.66844,5.66844,0,0,0-1.63008.36581,5.90416,5.90416,0,0,0-1.34968.71363l-.01861.01361a5.201,5.201,0,0,0-.63977.55586,4.32694,4.32694,0,0,0-3.35813-1.158,5.34112,5.34112,0,0,0-1.56612.34,5.22232,5.22232,0,0,0-.71893.34344,4.52284,4.52284,0,0,0-2.18821-.374,5.3669,5.3669,0,0,0-1.5473.33413q-.07438.02833-.147.05843a2.47206,2.47206,0,0,0-1.05775-.085l-2.43555.33225a2.46481,2.46481,0,0,0-1.029.38871c-.099-.04264-.1995-.08315-.30246-.12034a5.85405,5.85405,0,0,0-2.40161-.29891,5.49382,5.49382,0,0,0-2.49444.77153c-.07424.04491-.14658.092-.21825.13971a2.46083,2.46083,0,0,0-1.12858-.38018,2.47623,2.47623,0,0,0-2.62485-2.133l-1.34939.0933a2.47722,2.47722,0,0,0-2.30039,2.64208l.00506.07371c-.06115.03674-.11989.07688-.17742.11861a4.46807,4.46807,0,0,0-1.39119-.392,8.53729,8.53729,0,0,0-1.54079-.01988,5.66328,5.66328,0,0,0-1.63031.36566c-.05307.02025-.103.04309-.15474.06433a2.48972,2.48972,0,0,0-.00068-.31145L18.157,9.50575a2.47707,2.47707,0,0,0-2.64208-2.30092L12.08376,7.442A2.47719,2.47719,0,0,0,9.77967,9.80791c-.00469.03333-.0146.09766-.03387.20509a4.05384,4.05384,0,0,1-.11491.47768l-.203.65051L8.56763,9.2829a2.47894,2.47894,0,0,0-2.4187-1.43059l-3.58749.248A2.47714,2.47714,0,0,0,.261,10.74182l.03621.52653A2.48039,2.48039,0,0,0,2.112,13.48611l.32522,4.70481.00514.07747A2.4782,2.4782,0,0,0,.8851,20.74228l.03643.52637a2.47716,2.47716,0,0,0,2.46874,2.30621c.0573,0,.11528-.002.17334-.006l4.24866-.2937a2.47729,2.47729,0,0,0,1.06567-.32477,2.49615,2.49615,0,0,0,.62783.03644l.37072-.02562a2.47486,2.47486,0,0,0,.835-.20737,2.46609,2.46609,0,0,0,1.2382.23533l4.64916-.32136a2.47566,2.47566,0,0,0,1.12109-.359,4.439,4.439,0,0,0,1.71156.33762c.11386,0,.2302-.004.34632-.012a5.53138,5.53138,0,0,0,2.05114-.524,4.11577,4.11577,0,0,0,1.72073.22588,4.58742,4.58742,0,0,0,1.28475-.269c.21961-.08179.46711-.18354.73555-.30238.07506-.03326.147-.07106.21741-.11082.02993.01437.06184.02751.09275.04135a2.46879,2.46879,0,0,0-.0719.782l.03629.52653a2.47774,2.47774,0,0,0,1.6548,2.16893l.34048,4.92456A2.47806,2.47806,0,0,0,26.499,32.47344l.03643.52638A2.47723,2.47723,0,0,0,29.00421,35.306c.0573,0,.1152-.002.17326-.006l4.56011-.31515a2.47722,2.47722,0,0,0,2.30047-2.64231l-.03643-.52638a2.49522,2.49522,0,0,0-.04143-.31192c.01988-.00431.03915-.01057.05889-.01534a5.95286,5.95286,0,0,0,.95046,1.37865,5.51209,5.51209,0,0,0,2.07414,1.39611,5.89731,5.89731,0,0,0,2.1399.38335c.16162,0,.32771-.00582.49371-.01732a5.61638,5.61638,0,0,0,2.51138-.769,2.461,2.461,0,0,0,1.2335.33278c.05724,0,.11506-.002.173-.006l.55609-.03841a2.48187,2.48187,0,0,0,.509-.089,5.56576,5.56576,0,0,0,1.594.11491,5.74057,5.74057,0,0,0,2.5262-.75127,2.46058,2.46058,0,0,0,1.20372.31614c.05722,0,.11506-.002.173-.006l.55609-.03841a2.48263,2.48263,0,0,0,.50905-.089,5.56817,5.56817,0,0,0,1.59388.11491,5.4335,5.4335,0,0,0,3.48256-1.47888c.01633-.01595.03144-.03267.04748-.04883a5.79524,5.79524,0,0,0,1.48289.75536,5.8915,5.8915,0,0,0,1.89081.31054c.13894,0,.28015-.00491.42031-.01459a6.30111,6.30111,0,0,0,2.4534-.66071,5.60468,5.60468,0,0,0,.59993-.35765,2.463,2.463,0,0,0,1.45522.4771c.0573,0,.11536-.002.17341-.006l3.85555-.26648a2.475,2.475,0,0,0,1.62351-.76783,3.44093,3.44093,0,0,0,2.03035.65565q.12315,0,.249-.00862A3.48744,3.48744,0,0,0,76.95311,31.147c.01723-.01935.03341-.03946.05019-.05911a5.49115,5.49115,0,0,0,1.00346.52328,5.26394,5.26394,0,0,0,1.94464.37541c.11958,0,.24084-.00424.36059-.01248a5.0667,5.0667,0,0,0,1.60763-.38078,2.482,2.482,0,0,0,.8255.02874l2.22267-.29671a2.4609,2.4609,0,0,0,.58133.072q.08618,0,.17342-.006l3.58114-.2475a2.47717,2.47717,0,0,0,1.03128-.30534,2.48079,2.48079,0,0,0,1.06349.16051l2.20575-.15248a2.47722,2.47722,0,0,0,2.30038-2.64224ZM9.7777,9.94671c-.00039-.02722-.00115-.06125.00068-.10192Q9.777,9.89549,9.7777,9.94671Z" transform="translate(0.66667 -1.64768)"/><path class="cls-2" d="M36.714,24.36908l-.55609.03849a3.81916,3.81916,0,0,0-.7354-1.20825,1.6141,1.6141,0,0,0-.996-.66873q-.23223-.01349-.54824-.00672t-.7165.03454l-1.76471.122.2921,4.22642,1.21166-.08376a2.51631,2.51631,0,0,0,.84682-.1741,1.32455,1.32455,0,0,0,.49591-.38818,1.51861,1.51861,0,0,0,.23616-.52661,3.0456,3.0456,0,0,0,.10885-.74878l.55609-.03841.28606,4.13739-.55609.0384a3.27619,3.27619,0,0,0-.20365-.73086,1.90708,1.90708,0,0,0-.32023-.58141,1.119,1.119,0,0,0-.58708-.33556,2.89889,2.89889,0,0,0-.82083-.04392l-1.21164.08376.25022,3.61991a.96791.96791,0,0,0,.12655.43029.70727.70727,0,0,0,.3627.28727,2.64211,2.64211,0,0,0,.49063.09246,3.89857,3.89857,0,0,0,.56909.04248l.03643.52646-4.56011.31515-.03643-.52645q.22157-.03005.58994-.08913a1.77413,1.77413,0,0,0,.476-.11861.63476.63476,0,0,0,.30285-.30776.96555.96555,0,0,0,.06863-.46287l-.52494-7.59273a1.0885,1.0885,0,0,0-.11142-.42817.63362.63362,0,0,0-.3624-.2841,2.5276,2.5276,0,0,0-.54929-.13335,4.07235,4.07235,0,0,0-.54384-.05187l-.03627-.52653,8.25267-.57044Z" transform="translate(0.66667 -1.64768)"/><path class="cls-2" d="M44.37721,30.038a3.753,3.753,0,0,1-1.13454,1.47913,3.10642,3.10642,0,0,1-1.73615.64142A3.612,3.612,0,0,1,39.939,31.954a3.04259,3.04259,0,0,1-1.15208-.76972,3.59671,3.59671,0,0,1-.72738-1.20136,5.27338,5.27338,0,0,1-.31539-1.49054,4.44286,4.44286,0,0,1,.12957-1.41334,3.94793,3.94793,0,0,1,.57816-1.28037,3.21624,3.21624,0,0,1,.99061-.92151,3.03132,3.03132,0,0,1,1.3828-.41972,3.38969,3.38969,0,0,1,1.389.15731,2.44869,2.44869,0,0,1,.97458.62549,2.76177,2.76177,0,0,1,.57559.94359,4.30647,4.30647,0,0,1,.25143,1.212l.03387.48934-4.84193.33466a5.77282,5.77282,0,0,0,.22754,1.29851,3.14171,3.14171,0,0,0,.50529,1.00293,2.06928,2.06928,0,0,0,.80327.62767,2.33622,2.33622,0,0,0,1.12942.17213,2.05468,2.05468,0,0,0,1.11671-.388,3.06812,3.06812,0,0,0,.84622-1.17809ZM42.54582,27.3633a6.04095,6.04095,0,0,0-.13169-.88206,2.72345,2.72345,0,0,0-.28091-.77554,1.50829,1.50829,0,0,0-.50544-.522,1.27441,1.27441,0,0,0-.77849-.16169,1.593,1.593,0,0,0-1.24916.73631,3.02067,3.02067,0,0,0-.43543,1.83871Z" transform="translate(0.66667 -1.64768)"/><path class="cls-2" d="M49.92084,27.78474a1.8765,1.8765,0,0,1,.50981.58315,2.01292,2.01292,0,0,1,.222.84139,2.0836,2.0836,0,0,1-.64529,1.71354,3.25717,3.25717,0,0,1-3.115.63251,3.22826,3.22826,0,0,1-.79663-.36967l-.115.49228-.55608.03841-.25008-2.53815.51164-.0353a2.84486,2.84486,0,0,0,.29907.65972,3.25633,3.25633,0,0,0,.51541.66706,2.57924,2.57924,0,0,0,.73147.50264,1.849,1.849,0,0,0,.92363.16033,1.66192,1.66192,0,0,0,1.075-.4002,1.14938,1.14938,0,0,0,.32128-.95538,1.11641,1.11641,0,0,0-.1595-.5291,1.18885,1.18885,0,0,0-.38705-.37185,2.84274,2.84274,0,0,0-.62185-.26619q-.36514-.11249-.81207-.21574a7.32759,7.32759,0,0,1-.79451-.232,3.08993,3.08993,0,0,1-.75989-.37578,2.09106,2.09106,0,0,1-.57785-.60077,1.825,1.825,0,0,1-.26928-.87541,2.00578,2.00578,0,0,1,.56229-1.56612,2.5198,2.5198,0,0,1,1.744-.74636,3.65712,3.65712,0,0,1,.88629.05043,3.04715,3.04715,0,0,1,.74885.2165l.14394-.39733.53387-.03689.27351,2.34273-.51148.03538a2.36851,2.36851,0,0,0-.75975-1.238,1.75116,1.75116,0,0,0-1.29118-.40829,1.40261,1.40261,0,0,0-.93527.37231.95224.95224,0,0,0-.2974.76344,1.205,1.205,0,0,0,.15346.54814,1.0222,1.0222,0,0,0,.37087.35424,2.86681,2.86681,0,0,0,.57892.23942q.34651.10648.85438.23519a7.197,7.197,0,0,1,.94843.29958A3.04467,3.04467,0,0,1,49.92084,27.78474Z" transform="translate(0.66667 -1.64768)"/><path class="cls-2" d="M56.48288,27.33116a1.87288,1.87288,0,0,1,.50967.58316,2.01041,2.01041,0,0,1,.22211.84137,2.08374,2.08374,0,0,1-.64529,1.71354,3.25687,3.25687,0,0,1-3.115.63244,3.22845,3.22845,0,0,1-.79663-.36961l-.11506.49229-.55609.03841-.25007-2.53815.51164-.03538a2.84486,2.84486,0,0,0,.29905.6598,3.25466,3.25466,0,0,0,.51541.667,2.57958,2.57958,0,0,0,.73147.50272,1.85075,1.85075,0,0,0,.92365.16035,1.66236,1.66236,0,0,0,1.075-.40021,1.14937,1.14937,0,0,0,.32128-.95538,1.11788,1.11788,0,0,0-.15951-.5291,1.18776,1.18776,0,0,0-.38705-.37185,2.8423,2.8423,0,0,0-.62185-.26618q-.36512-.11247-.81205-.21582a7.30788,7.30788,0,0,1-.79451-.23194,3.092,3.092,0,0,1-.75989-.37578,2.09207,2.09207,0,0,1-.57785-.60076,1.82488,1.82488,0,0,1-.26928-.8754,2.00566,2.00566,0,0,1,.56228-1.56612,2.52025,2.52025,0,0,1,1.744-.74644,3.65812,3.65812,0,0,1,.88629.0505,3.05107,3.05107,0,0,1,.74885.21642l.14394-.39734.53385-.03689.27351,2.34281-.51148.0353a2.36849,2.36849,0,0,0-.75974-1.238,1.75139,1.75139,0,0,0-1.29117-.40829,1.40227,1.40227,0,0,0-.93529.37231.95213.95213,0,0,0-.29739.76336,1.20327,1.20327,0,0,0,.15347.54816,1.02225,1.02225,0,0,0,.37087.35431,2.87129,2.87129,0,0,0,.57891.23942q.34653.10636.85439.23511a7.21925,7.21925,0,0,1,.94842.29958A3.04668,3.04668,0,0,1,56.48288,27.33116Z" transform="translate(0.66667 -1.64768)"/><path class="cls-2" d="M65.34063,26.56984a4.842,4.842,0,0,1-.14,1.53324,3.623,3.623,0,0,1-.61037,1.31242,3.25617,3.25617,0,0,1-1.12652.96453,3.82326,3.82326,0,0,1-1.49439.39386,3.42717,3.42717,0,0,1-1.34682-.17139,3.35617,3.35617,0,0,1-1.17385-.69,3.67649,3.67649,0,0,1-.852-1.15919A4.3085,4.3085,0,0,1,58.2,27.16781a3.99755,3.99755,0,0,1,.80465-2.87182,3.66333,3.66333,0,0,1,5.14735-.4117A3.808,3.808,0,0,1,65.34063,26.56984Zm-1.53369.121a6.66762,6.66762,0,0,0-.19278-1.1675,3.72343,3.72343,0,0,0-.4067-1.02614,2.05831,2.05831,0,0,0-.67508-.69467,1.57588,1.57588,0,0,0-.96263-.21288,1.67041,1.67041,0,0,0-.95721.34934,2.082,2.082,0,0,0-.60416.81659,3.419,3.419,0,0,0-.26307,1.05366,6.80517,6.80517,0,0,0-.01906,1.12638,7.0417,7.0417,0,0,0,.20608,1.30811,3.79854,3.79854,0,0,0,.44223,1.05343,2.10443,2.10443,0,0,0,.68657.70131,1.60212,1.60212,0,0,0,.96582.20509,1.65747,1.65747,0,0,0,1.40881-.9987A4.8,4.8,0,0,0,63.80694,26.69087Z" transform="translate(0.66667 -1.64768)"/><path class="cls-2" d="M71.80925,23.47047a1.23232,1.23232,0,0,1-.139.68384.62977.62977,0,0,1-.55079.33232.869.869,0,0,1-.64876-.17115.6554.6554,0,0,1-.25144-.4594,1.5574,1.5574,0,0,1,.00529-.29845q.01679-.13527.02979-.27018a1.6459,1.6459,0,0,0-.796.33814,2.416,2.416,0,0,0-.73812.85552l.29422,4.25606a.8002.8002,0,0,0,.12928.41585.60618.60618,0,0,0,.33217.22286,1.98281,1.98281,0,0,0,.48592.07817q.29528.017.51134.01678l.03386.48933-3.85555.26648-.03386-.48933q.16939-.02666.35016-.054a1.35188,1.35188,0,0,0,.311-.081.53427.53427,0,0,0,.29165-.25454.83505.83505,0,0,0,.07-.44019l-.31176-4.5103a1.03116,1.03116,0,0,0-.13864-.44427.90285.90285,0,0,0-.32491-.33474,1.0141,1.0141,0,0,0-.3426-.10652,2.98728,2.98728,0,0,0-.4191-.02691l-.03387-.48934,2.42089-.33125.111.09661.07122,1.03067.03719-.00257a3.32811,3.32811,0,0,1,.96008-.98266,2.16893,2.16893,0,0,1,1.00922-.38275,1.011,1.011,0,0,1,.7809.25143A1.12929,1.12929,0,0,1,71.80925,23.47047Z" transform="translate(0.66667 -1.64768)"/><path class="cls-2" d="M75.35681,28.7681a.95535.95535,0,0,1-.25143.729,1.02324,1.02324,0,0,1-1.43118.099.95594.95594,0,0,1-.34911-.68748,1.0183,1.0183,0,0,1,2.03171-.14045Z" transform="translate(0.66667 -1.64768)"/><path class="cls-2" d="M84.96388,28.82676l-2.54654.34-.11853-.09608-.04717-.68217-.06032-.01075a3.04236,3.04236,0,0,1-.90278.77017,2.65476,2.65476,0,0,1-1.14739.355,2.76484,2.76484,0,0,1-1.22239-.19489,3.04481,3.04481,0,0,1-1.0647-.71249,3.87575,3.87575,0,0,1-.77743-1.18294,4.7237,4.7237,0,0,1-.36513-1.56914,4.16683,4.16683,0,0,1,.16979-1.5241,3.98166,3.98166,0,0,1,.66932-1.29791,3.339,3.339,0,0,1,1.05215-.86988,3.22,3.22,0,0,1,1.31613-.389A3.93443,3.93443,0,0,1,80.931,21.823a3.60079,3.60079,0,0,1,.87057.27132l-.17614-2.5482a1.50408,1.50408,0,0,0-.143-.56115.86928.86928,0,0,0-.31614-.37005,1.4544,1.4544,0,0,0-.57394-.16555,7.30775,7.30775,0,0,0-.76639-.04038l-.03189-.45969,2.98408-.3702.11914.10342.68112,9.85486a.90424.90424,0,0,0,.13079.434.86763.86763,0,0,0,.314.28735.919.919,0,0,0,.41548.08284q.26851.00386.49153-.00423ZM82.191,27.72956l-.29574-4.27829a1.91705,1.91705,0,0,0-.221-.402,1.86347,1.86347,0,0,0-.361-.3847,1.901,1.901,0,0,0-.52464-.2729,1.717,1.717,0,0,0-.68188-.07583,1.5354,1.5354,0,0,0-.80193.28636,2.19334,2.19334,0,0,0-.6164.70569,3.4126,3.4126,0,0,0-.36014,1.08655,5.92346,5.92346,0,0,0-.06078,1.43089A4.99288,4.99288,0,0,0,78.464,26.9479a3.00061,3.00061,0,0,0,.46491.91781,2.06373,2.06373,0,0,0,.70849.62146,1.77464,1.77464,0,0,0,.97579.1859,1.73219,1.73219,0,0,0,.96249-.32732A3.17134,3.17134,0,0,0,82.191,27.72956Z" transform="translate(0.66667 -1.64768)"/><path class="cls-2" d="M93.43336,28.37538l-2.20573.15247q-.63729-.79681-1.36376-1.70688-.72663-.90974-1.50179-1.76426l-.56954.60939.12,1.735a.90527.90527,0,0,0,.12684.43454.57073.57073,0,0,0,.32915.23426,2.09731,2.09731,0,0,0,.34864.08769,2.48363,2.48363,0,0,0,.38176.02572l.03387.4894-3.58115.2475-.03386-.48933q.168-.02655.35107-.05776a1.71672,1.71672,0,0,0,.3054-.0771.54764.54764,0,0,0,.29317-.25514.82081.82081,0,0,0,.07317-.44118l-.58782-8.50335a1.19052,1.19052,0,0,0-.15059-.50778.90057.90057,0,0,0-.32582-.34653.99493.99493,0,0,0-.49637-.12215q-.33246-.01431-.53385-.01528l-.0328-.47458,2.69531-.35024.11142.104.53461,7.73476q.53884-.61811,1.16464-1.32768.62547-.70963,1.04987-1.26027a1.53718,1.53718,0,0,0,.11748-.18377.35176.35176,0,0,0,.05821-.17961q-.01384-.20095-.34305-.27526a3.8271,3.8271,0,0,0-.6282-.09116l-.03282-.47453,3.21617-.22232.03175.45969a5.07318,5.07318,0,0,0-1.06893.53954,4.732,4.732,0,0,0-.6958.551q-.16781.16068-.47141.51623-.30343.35573-.85257.9365.66.70735,1.49272,1.70091t1.21376,1.43671a1.93449,1.93449,0,0,0,.62534.53068,1.96305,1.96305,0,0,0,.7676.11082Z" transform="translate(0.66667 -1.64768)"/><path class="cls-2" d="M16.43855,20.35115l-4.64916.32136-.03643-.52645q.25151-.02473.64528-.09669a1.64039,1.64039,0,0,0,.53628-.16375.97.97,0,0,0,.31508-.34584.88759.88759,0,0,0,.07606-.46356l-.529-7.65191-.11129.00771L9.71624,20.64454l-.37072.02562L5.29493,11.75663l-.09647.00666.43423,6.28022a6.30212,6.30212,0,0,0,.21076,1.37865,1.28785,1.28785,0,0,0,.3993.65776,1.70772,1.70772,0,0,0,.69533.25,4.063,4.063,0,0,0,.67749.10212l.03644.52645-4.24865.2937-.03644-.52645A5.44616,5.44616,0,0,0,4.06,20.56614a1.362,1.362,0,0,0,.55034-.28393,1.09112,1.09112,0,0,0,.31176-.66231,7.44432,7.44432,0,0,0-.003-1.4451l-.37208-5.383a2.214,2.214,0,0,0-.164-.756,1.19973,1.19973,0,0,0-.35212-.46,1.46537,1.46537,0,0,0-.584-.25754,2.85119,2.85119,0,0,0-.66767-.06563L2.7428,10.726l3.58749-.24795L9.89,18.16725l2.11623-6.78438a6.52434,6.52434,0,0,0,.18823-.777,3.57308,3.57308,0,0,0,.07077-.538l3.43116-.23722.03627.52651a3.82359,3.82359,0,0,0-.52554.10342,3.49337,3.49337,0,0,0-.4631.1437.54418.54418,0,0,0-.32053.32015,1.13879,1.13879,0,0,0-.05776.45856L14.89,18.96812a.97207.97207,0,0,0,.11929.43135.75925.75925,0,0,0,.36256.288,1.72454,1.72454,0,0,0,.484.10424,3.9439,3.9439,0,0,0,.54627.033Z" transform="translate(0.66667 -1.64768)"/><path class="cls-2" d="M24.578,19.65438q-.33971.15035-.59766.24621a2.11188,2.11188,0,0,1-.59146.11915,1.45809,1.45809,0,0,1-.94178-.20684,1.25118,1.25118,0,0,1-.49577-.75921l-.0446.0031a3.62845,3.62845,0,0,1-.97791.8872,2.90892,2.90892,0,0,1-1.31144.37375,1.889,1.889,0,0,1-1.38809-.41072,1.74239,1.74239,0,0,1-.6214-1.28317,2.25184,2.25184,0,0,1,.06639-.76456,1.80768,1.80768,0,0,1,.31447-.62511,1.77743,1.77743,0,0,1,.46189-.43052,4.295,4.295,0,0,1,.5517-.31758q.325-.149,1.32081-.56062a10.14328,10.14328,0,0,0,1.33866-.629l-.0508-.73411a3.11561,3.11561,0,0,0-.06637-.36776,1.55966,1.55966,0,0,0-.21015-.5071,1.48386,1.48386,0,0,0-.45192-.44927,1.25857,1.25857,0,0,0-.7815-.15081,1.72489,1.72489,0,0,0-.6261.15868,1.15584,1.15584,0,0,0-.39492.26942,2.03884,2.03884,0,0,0,.1007.43265,2.28193,2.28193,0,0,1,.10735.529.63821.63821,0,0,1-.20079.4907.9238.9238,0,0,1-.63395.2599.60817.60817,0,0,1-.56319-.22565,1.04252,1.04252,0,0,1-.01906-1.24651,2.42275,2.42275,0,0,1,.58815-.59948,3.42173,3.42173,0,0,1,.78378-.40806,3.17724,3.17724,0,0,1,.917-.20857,6.09528,6.09528,0,0,1,1.09221.01014,1.99986,1.99986,0,0,1,.86678.30881,1.71476,1.71476,0,0,1,.62625.70546,3.19122,3.19122,0,0,1,.2803,1.19881q.07325,1.06034.10765,1.88113.03425.821.10145,1.79216a.90822.90822,0,0,0,.132.45282.81093.81093,0,0,0,.32763.26782.75549.75549,0,0,0,.35728.0499q.24152-.00908.49379-.02661Zm-2.85829-3.736q-.61753.22928-1.07966.44051a4.46605,4.46605,0,0,0-.85151.50679,2.01409,2.01409,0,0,0-.5446.63879,1.527,1.527,0,0,0-.15815.83586,1.16332,1.16332,0,0,0,.38524.88424,1.18179,1.18179,0,0,0,.83927.23314,1.68552,1.68552,0,0,0,.90928-.32039,2.711,2.711,0,0,0,.63289-.65223Z" transform="translate(0.66667 -1.64768)"/><path class="cls-2" d="M29.80742,19.10669q-.46832.23349-.8887.40043a3.51182,3.51182,0,0,1-1.04338.21,1.58175,1.58175,0,0,1-1.326-.37406,2.03707,2.03707,0,0,1-.46476-1.28286l-.34245-4.953-1.31991.09125-.04914-.7119,1.34954-.09328L25.56527,10.117l1.34939-.09328L27.072,12.3l2.0984-.14507.0493.712-2.08358.144.28227,4.08552a7.3693,7.3693,0,0,0,.08648.765,1.4268,1.4268,0,0,0,.1967.52653.762.762,0,0,0,.37829.30162,1.52492,1.52492,0,0,0,.64543.06721q.1853-.01282.54263-.071a2.39786,2.39786,0,0,0,.502-.12042Z" transform="translate(0.66667 -1.64768)"/><path class="cls-2" d="M36.93251,17.206A3.752,3.752,0,0,1,35.798,18.68515a3.10651,3.10651,0,0,1-1.73615.64144,3.612,3.612,0,0,1-1.56756-.20449,3.04161,3.04161,0,0,1-1.15208-.76965,3.5994,3.5994,0,0,1-.72753-1.20144,5.27867,5.27867,0,0,1-.31525-1.49046,4.44331,4.44331,0,0,1,.12957-1.41335,3.949,3.949,0,0,1,.57816-1.28044,3.21608,3.21608,0,0,1,.99062-.92145,3.03017,3.03017,0,0,1,1.3828-.4197,3.38978,3.38978,0,0,1,1.389.15731,2.44842,2.44842,0,0,1,.97458.62542,2.76162,2.76162,0,0,1,.57559.94366,4.30543,4.30543,0,0,1,.25143,1.212l.03386.48933-4.84193.33474a5.77206,5.77206,0,0,0,.22756,1.29845,3.142,3.142,0,0,0,.50527,1.00293,2.07026,2.07026,0,0,0,.80329.62775,2.338,2.338,0,0,0,1.1294.17213,2.05412,2.05412,0,0,0,1.11671-.388,3.0678,3.0678,0,0,0,.84622-1.17809Zm-1.83139-2.67459a6.046,6.046,0,0,0-.13169-.88212,2.72138,2.72138,0,0,0-.28092-.77547,1.50768,1.50768,0,0,0-.50543-.52207,1.27483,1.27483,0,0,0-.77849-.16162,1.59256,1.59256,0,0,0-1.24916.7363A3.02028,3.02028,0,0,0,31.72,14.76512Z" transform="translate(0.66667 -1.64768)"/><path class="cls-2" d="M50.4054,18.0032l-3.55905.246-.03387-.48933q.16941-.02666.34276-.05344a1.34121,1.34121,0,0,0,.30359-.0806.53469.53469,0,0,0,.2915-.2549.83625.83625,0,0,0,.0703-.44057l-.26095-3.77422a1.80419,1.80419,0,0,0-.43454-1.16569,1.10488,1.10488,0,0,0-.90761-.35816,2.06219,2.06219,0,0,0-.67446.15837,2.15734,2.15734,0,0,0-.56424.35183,1.87985,1.87985,0,0,0-.3352.37707,3.31127,3.31127,0,0,0-.197.33028l.29164,4.21895a.90229.90229,0,0,0,.11855.42031.57759.57759,0,0,0,.32158.23482,2.43488,2.43488,0,0,0,.31463.0787,2.19,2.19,0,0,0,.36287.02342l.03386.48934-3.48482.24084-.03387-.48932q.16941-.02666.32794-.05239a1.31839,1.31839,0,0,0,.28877-.07961.53469.53469,0,0,0,.2915-.2549.83618.83618,0,0,0,.07015-.44057l-.261-3.77415a1.80047,1.80047,0,0,0-.43528-1.16569,1.10908,1.10908,0,0,0-.90973-.358,2.01031,2.01031,0,0,0-.67582.16216,2.253,2.253,0,0,0-.56547.35567,1.77484,1.77484,0,0,0-.33867.39219q-.13472.21444-.20169.32317l.28953,4.18939a.79929.79929,0,0,0,.13305.4154.65253.65253,0,0,0,.32929.238,1.53552,1.53552,0,0,0,.32658.08921,2.46894,2.46894,0,0,0,.36694.02675l.03387.48935-3.55167.24545-.03386-.48933q.16941-.02666.35016-.054a1.35275,1.35275,0,0,0,.311-.081.53438.53438,0,0,0,.2915-.25453.83349.83349,0,0,0,.07015-.4402l-.31371-4.53992a.84856.84856,0,0,0-.137-.41843.982.982,0,0,0-.32265-.30132,1.269,1.269,0,0,0-.35847-.12028,2.23613,2.23613,0,0,0-.43483-.04075l-.03387-.48933,2.43556-.33225.111.09661.07227,1.04549.05185-.00362q.1726-.198.42213-.4687a4.05971,4.05971,0,0,1,.46855-.44223,2.37285,2.37285,0,0,1,.62836-.34139,2.88165,2.88165,0,0,1,.83337-.17682,1.993,1.993,0,0,1,1.2499.29732,2.18206,2.18206,0,0,1,.79784.87238q.24858-.27781.43847-.48843a3.88618,3.88618,0,0,1,.50784-.45607,2.46233,2.46233,0,0,1,.64091-.35726,2.85643,2.85643,0,0,1,.83927-.17727,1.86657,1.86657,0,0,1,1.50769.50671,2.75666,2.75666,0,0,1,.66977,1.83117l.25688,3.71479a.90185.90185,0,0,0,.11839.42025.57827.57827,0,0,0,.32158.23488,2.00955,2.00955,0,0,0,.34441.07665,3.02266,3.02266,0,0,0,.37769.02237Z" transform="translate(0.66667 -1.64768)"/><path class="cls-2" d="M58.18923,17.33108q-.34.15025-.59766.24615A2.10982,2.10982,0,0,1,57,17.69636a1.45687,1.45687,0,0,1-.94164-.20683,1.24991,1.24991,0,0,1-.49575-.75921l-.0446.0031a3.63122,3.63122,0,0,1-.97791.8872,2.91,2.91,0,0,1-1.3116.37374,1.88768,1.88768,0,0,1-1.38794-.41071,1.74131,1.74131,0,0,1-.62156-1.28317,2.25918,2.25918,0,0,1,.06637-.76451,1.80773,1.80773,0,0,1,.31449-.62518,1.77811,1.77811,0,0,1,.46189-.43043,4.27663,4.27663,0,0,1,.55184-.31758q.32478-.14912,1.32082-.5607a10.14427,10.14427,0,0,0,1.3385-.62888l-.0508-.73411a3.17439,3.17439,0,0,0-.06623-.36785,1.56059,1.56059,0,0,0-.21045-.5071,1.48154,1.48154,0,0,0-.45177-.44926,1.25848,1.25848,0,0,0-.78152-.15083,1.72481,1.72481,0,0,0-.62608.15875,1.15226,1.15226,0,0,0-.39476.26936,2.03566,2.03566,0,0,0,.10054.43271,2.26622,2.26622,0,0,1,.10735.52895.63807.63807,0,0,1-.20079.49069.92312.92312,0,0,1-.63381.25991.608.608,0,0,1-.56319-.22567,1.0419,1.0419,0,0,1-.019-1.24649,2.423,2.423,0,0,1,.588-.59948,3.42368,3.42368,0,0,1,.78378-.40806,3.18,3.18,0,0,1,.917-.20857,6.08582,6.08582,0,0,1,1.09206.0102,1.99916,1.99916,0,0,1,.86693.30873,1.717,1.717,0,0,1,.62623.70555,3.19009,3.19009,0,0,1,.28032,1.19872q.07325,1.06037.10749,1.88114.0347.821.10175,1.79224a.90652.90652,0,0,0,.13185.45274.81053.81053,0,0,0,.32763.26792.75676.75676,0,0,0,.35742.0499q.24131-.0092.49365-.02669ZM55.33079,13.595q-.61776.22928-1.07966.4405a4.47013,4.47013,0,0,0-.85151.50681,2.015,2.015,0,0,0-.5446.63878,1.52694,1.52694,0,0,0-.158.83588,1.16276,1.16276,0,0,0,.38509.88424,1.18181,1.18181,0,0,0,.83942.23313,1.68487,1.68487,0,0,0,.90911-.32037,2.70274,2.70274,0,0,0,.63275-.65224Z" transform="translate(0.66667 -1.64768)"/><path class="cls-2" d="M63.41837,16.78338q-.46832.23337-.88856.40037a3.50926,3.50926,0,0,1-1.04352.21,1.5811,1.5811,0,0,1-1.32581-.374,2.037,2.037,0,0,1-.46491-1.28278l-.34245-4.953-1.31991.09116-.04914-.7118,1.34954-.0933-.15739-2.27627,1.34954-.09328.15739,2.27627,2.0984-.14507.04914.71188-2.08358.144.28242,4.08552a7.33451,7.33451,0,0,0,.08633.76511,1.43788,1.43788,0,0,0,.19641.52653.76427.76427,0,0,0,.37874.30154,1.52323,1.52323,0,0,0,.64543.06721q.18507-.01282.54248-.071a2.40242,2.40242,0,0,0,.502-.12036Z" transform="translate(0.66667 -1.64768)"/><path class="cls-2" d="M67.71148,16.8069l-3.52944.244-.03386-.48934q.16941-.02664.35016-.054a1.35191,1.35191,0,0,0,.311-.081A.53427.53427,0,0,0,65.101,16.172a.83345.83345,0,0,0,.07015-.44019l-.31176-4.51031a.88845.88845,0,0,0-.13759-.42576.9569.9569,0,0,0-.32294-.3088,1.37967,1.37967,0,0,0-.4185-.12359,3.04058,3.04058,0,0,0-.49456-.044l-.03386-.48934,2.56891-.34153.11111.09661.412,5.96152a.84514.84514,0,0,0,.12912.42311.59076.59076,0,0,0,.33034.23048,2.53507,2.53507,0,0,0,.324.08574,1.9664,1.9664,0,0,0,.35016.0316ZM66.07361,6.58676a1.083,1.083,0,0,1-.22694.757.88135.88135,0,0,1-.664.36254.86815.86815,0,0,1-.677-.255.98352.98352,0,0,1-.32553-.66669,1.02347,1.02347,0,0,1,.2289-.731.86429.86429,0,0,1,.63531-.34932.91551.91551,0,0,1,.71287.23752A.93788.93788,0,0,1,66.07361,6.58676Z" transform="translate(0.66667 -1.64768)"/><path class="cls-2" d="M76.36435,16.20878l-2.20573.15248q-.63729-.79683-1.36376-1.70688-.72663-.90988-1.50195-1.76434l-.56938.60945.12,1.735a.90543.90543,0,0,0,.12669.43454.57118.57118,0,0,0,.32915.23427,2.10421,2.10421,0,0,0,.3488.08769,2.49078,2.49078,0,0,0,.38176.0257l.03387.48933-3.58115.24759-.03386-.48934q.168-.02652.35107-.05775a1.72148,1.72148,0,0,0,.3054-.07712.54723.54723,0,0,0,.293-.25513.81948.81948,0,0,0,.07332-.44118l-.58782-8.50337a1.18838,1.18838,0,0,0-.15075-.50777.89909.89909,0,0,0-.32567-.34654.99568.99568,0,0,0-.49637-.12217q-.33269-.01428-.53385-.01534l-.03281-.47459,2.69531-.35017.11142.104.53461,7.73477q.53884-.61811,1.16464-1.3277.62547-.70963,1.04973-1.26026a1.499,1.499,0,0,0,.11746-.18385.35042.35042,0,0,0,.05837-.17955q-.01384-.20093-.34305-.27524a3.82751,3.82751,0,0,0-.6282-.09117l-.03282-.47451L75.288,8.93734l.03175.45971a5.06949,5.06949,0,0,0-1.06893.53952,4.728,4.728,0,0,0-.6958.551q-.16781.16068-.47141.51625-.30343.35571-.85257.93648.66.70735,1.49272,1.70083.83276.99369,1.21361,1.43678a1.9376,1.9376,0,0,0,.62549.5307,1.96235,1.96235,0,0,0,.7676.11082Z" transform="translate(0.66667 -1.64768)"/></g><script xmlns="">try {
                        Object.defineProperty(screen, "availTop", { value: 0 });
                    } catch (e) {}
                    try {
                        Object.defineProperty(screen, "availLeft", { value: 0 });
                    } catch (e) {}
                    try {
                        Object.defineProperty(screen, "availWidth", { value: 1920 });
                    } catch (e) {}
                    try {
                        Object.defineProperty(screen, "availHeight", { value: 1080 });
                    } catch (e) {}
                    try {
                        Object.defineProperty(screen, "colorDepth", { value: 24 });
                    } catch (e) {}
                    try {
                        Object.defineProperty(screen, "pixelDepth", { value: 24 });
                    } catch (e) {}
                    try {
                        Object.defineProperty(navigator, "hardwareConcurrency", { value: 8 });
                    } catch (e) {}
                    try {
                        Object.defineProperty(navigator, "appVersion", { value: "5.0 (X11)" });
                    } catch (e) {}
                    try {
                        Object.defineProperty(navigator, "doNotTrack", { value: "unspecified" });
                    } catch (e) {}
                    
            try {
                window.screenY = 0
            } catch (e) { }
        
            try {
                window.screenTop = 0
            } catch (e) { }
        
            try {
                window.top.window.outerHeight = 424
            } catch (e) { }
        
            try {
                window.screenX = 0
            } catch (e) { }
        
            try {
                window.screenLeft = 0
            } catch (e) { }
        
            try {
                window.top.window.outerWidth = 1912
            } catch (e) { }
        </script></svg>